<?xml version="1.0" encoding="UTF-8"?>
<svg version="1.1" xmlns="http://www.w3.org/2000/svg" width="60" height="60">
<path d="M0 0 C5.71100383 0.17461702 8.57164421 3.66285672 12.375 7.5625 C13.70724609 8.85994141 13.70724609 8.85994141 15.06640625 10.18359375 C23.14050375 18.09689841 23.14050375 18.09689841 23.875 22.6875 C23.15192233 28.29135196 20.28834902 30.68366023 16.375 34.5625 C15.51003906 35.45195313 14.64507812 36.34140625 13.75390625 37.2578125 C5.70856309 45.45495459 5.70856309 45.45495459 0.5 45.875 C-2.57354744 45.83037499 -3.44493736 45.68715875 -6.0625 43.875 C-7.82454487 41.26717359 -8.47170385 39.70507113 -8.625 36.5625 C-7.71794717 33.34658543 -6.47380221 31.36378291 -4.4375 28.6875 C-2.32710488 25.65098548 -2.32710488 25.65098548 -2.625 22 C-3.70471017 18.28849629 -5.2043526 16.51266402 -7.625 13.5625 C-8.77623549 9.87854643 -8.98685843 8.32067956 -7.3125 4.8125 C-4.19085366 0.65030488 -4.19085366 0.65030488 0 0 Z " fill="#7B2CE7" transform="translate(37.625,14.4375)"/>
<path d="M0 0 C1.8828125 0.49804688 1.8828125 0.49804688 4.4453125 2.56054688 C6.27986324 6.30941144 6.52462087 8.3619485 5.8828125 12.49804688 C4.75390625 14.25585937 4.75390625 14.25585937 3.3828125 15.99804688 C1.3374186 18.61615107 0.87210392 19.55801491 0.2578125 22.99804688 C0.96937043 26.98277127 2.31891168 28.64233326 4.75 31.74023438 C6.70283311 34.77049264 6.52271254 37.04258664 5.8828125 40.49804688 C3.37177603 44.07437155 1.84008762 45.28130534 -2.4296875 46.24804688 C-7.80987873 45.15377069 -10.30355889 42.29194982 -14.1171875 38.49804688 C-15.09171875 37.64082031 -16.06625 36.78359375 -17.0703125 35.90039062 C-18.08716833 34.97596146 -19.10280005 34.05018396 -20.1171875 33.12304688 C-21.0659375 32.2696875 -22.0146875 31.41632812 -22.9921875 30.53710938 C-25.42512646 27.05764888 -26.06885877 25.09684012 -25.81591797 20.90625 C-24.3398994 15.81909167 -20.40979948 12.50693069 -16.6796875 8.93554688 C-15.89658203 8.11763672 -15.11347656 7.29972656 -14.30664062 6.45703125 C-9.7044874 1.92305807 -6.59339342 -0.47855275 0 0 Z " fill="#4259E8" transform="translate(25.1171875,-0.498046875)"/>
</svg>
